<svg xmlns="http://www.w3.org/2000/svg" width="177" height="167" viewBox="0 0 177 167">
  <g fill="#F97060" fill-rule="evenodd" stroke="#FFF" stroke-width="5">
    <path d="M7.39 92.03C4.964 90.714 3 87.415 3 84.647v-9.122c0-2.76 2.06-5.897 4.586-7l51.266-22.386c3.036-1.326 5.498-5.084 5.498-8.405V19.805c0-3.316 2.422-7.168 5.404-8.602l14.314-6.88c2.484-1.195 6.617-1.425 9.218-.518l78.936 27.502c2.607.91 2.736 2.693.306 3.977l-10.978 5.8c-2.93 1.546-5.303 5.48-5.303 8.802l.002 21.784c0 3.314-2.278 7.428-5.09 9.188l-50.658 31.72c-2.343 1.468-4.242 4.886-4.24 7.65l.002 20.127L7.39 92.03zM152.174 126.786c2.25-1.6 4.076-5.133 4.076-7.893v-15.445c0-2.758-1.828-3.706-4.088-2.113L96.26 140.737v20.797c0 2.764 1.828 3.705 4.076 2.107l51.838-36.854z"/>
  </g>
</svg>
