<?xml version="1.0" encoding="UTF-8"?>
<svg width="126px" height="126px" viewBox="0 0 126 126" version="1.1" xmlns="http://www.w3.org/2000/svg" xmlns:xlink="http://www.w3.org/1999/xlink">
    <!-- Generator: Sketch 45.1 (43504) - http://www.bohemiancoding.com/sketch -->
    <title>Group 3 Copy</title>
    <desc>Created with Sketch.</desc>
    <defs></defs>
    <g id="App" stroke="none" stroke-width="1" fill="none" fill-rule="evenodd">
        <g id="Artboard-5" transform="translate(-259.000000, -315.000000)">
            <g id="Group-3-Copy" transform="translate(259.000000, 315.000000)">
                <circle id="Oval-3" fill="#2E3192" cx="63" cy="63" r="63"></circle>
                <g id="Group-10-Copy-6" transform="translate(20.130178, 22.964020)" stroke="#FFFFFF" stroke-width="5" fill="#F97060">
                    <path d="M4.39467517,23.3768727 C1.9675631,24.6988314 -1.86082705e-34,28.0088223 1.80725161e-33,30.7676407 L1.4840148e-33,30.3202739 C3.47809434e-33,33.0801237 2.05406378,36.215871 4.57844656,37.3200354 L25.0792977,46.2871024 C28.1184011,47.6164054 30.5820813,51.3837679 30.5820813,54.6879963 L30.5820813,57.6484998 C30.5820813,60.9588823 32.9958951,64.804807 35.9822495,66.2428333 L38.1413669,67.2825182 C40.6333351,68.4824814 44.7634766,68.7188245 47.3680862,67.8097804 L81.9934426,55.7250615 C84.5972507,54.8162971 84.7311172,53.0335117 82.2879928,51.7407446 L81.7008584,51.4300654 C78.7685569,49.8784528 76.3917073,45.9286676 76.3920147,42.6249477 L76.3924688,37.7450499 C76.3927769,34.4337303 74.1208076,30.3241349 71.3032504,28.5568332 L50.7257756,15.6496928 C48.3857795,14.1819394 46.4891839,10.7495793 46.4896083,7.99855956 L46.4907729,0.448676786 L4.39467517,23.3768727 Z" id="Path-Copy-9" transform="translate(42.018363, 34.405745) scale(1, -1) translate(-42.018363, -34.405745) "></path>
                    <path d="M50.5685671,65.8192934 C48.3153949,67.4239834 46.4888379,70.966193 46.4888379,73.7261673 L46.4888379,76.4239727 C46.4888379,79.1861285 48.3144632,80.1363131 50.5685671,78.5448001 L76.3930267,60.3114065 L76.3930267,52.4270933 C76.3930267,49.6658023 74.5674014,48.7275284 72.3132975,50.3328819 L50.5685671,65.8192934 Z" id="Path-Copy-10" transform="translate(61.440932, 64.432472) scale(-1, -1) translate(-61.440932, -64.432472) "></path>
                </g>
            </g>
        </g>
    </g>
</svg>