<?xml version="1.0" encoding="UTF-8"?>
<svg width="177px" height="167px" viewBox="0 0 177 167" version="1.1" xmlns="http://www.w3.org/2000/svg" xmlns:xlink="http://www.w3.org/1999/xlink">
    <!-- Generator: Sketch 43.1 (39012) - http://www.bohemiancoding.com/sketch -->
    <title>typewriter-logo</title>
    <desc>Created with Sketch.</desc>
    <defs></defs>
    <g id="Page-1" stroke="none" stroke-width="1" fill="none" fill-rule="evenodd">
        <g id="typewriter-logo" transform="translate(3.000000, 3.000000)" stroke="#5755A9" stroke-width="5" fill="#F97060">
            <path d="M4.39,89.03 C1.964,87.714 0,84.415 0,81.647 L0,72.525 C0,69.765 2.06,66.628 4.586,65.525 L55.852,43.139 C58.888,41.813 61.35,38.055 61.35,34.734 L61.35,16.805 C61.35,13.489 63.772,9.637 66.754,8.203 L81.068,1.323 C83.552,0.128 87.685,-0.102 90.286,0.805 L169.222,28.307 C171.829,29.217 171.958,31 169.528,32.284 L158.55,38.084 C155.62,39.63 153.247,43.564 153.247,46.886 L153.249,68.67 C153.249,71.984 150.971,76.098 148.159,77.858 L97.501,109.578 C95.158,111.046 93.259,114.464 93.261,117.228 L93.263,137.355 L4.39,89.03 Z M149.174,123.786 C151.424,122.186 153.25,118.653 153.25,115.893 L153.25,100.448 C153.25,97.69 151.422,96.742 149.162,98.335 L93.26,137.737 L93.26,158.534 C93.26,161.298 95.088,162.239 97.336,160.641 L149.174,123.787 L149.174,123.786 Z" id="Shape"></path>
        </g>
    </g>
</svg>